<?xml version="1.0" standalone="no"?>
<!DOCTYPE svg PUBLIC "-//W3C//DTD SVG 20010904//EN"
 "http://www.w3.org/TR/2001/REC-SVG-20010904/DTD/svg10.dtd">
<svg version="1.0" xmlns="http://www.w3.org/2000/svg"
 width="289.000000pt" height="289.000000pt" viewBox="0 0 289.000000 289.000000"
 preserveAspectRatio="xMidYMid meet">
<metadata>
Created by potrace 1.11, written by Peter Selinger 2001-2013
</metadata>
<g transform="translate(0.000000,289.000000) scale(0.100000,-0.100000)"
fill="#000000" stroke="none">
<path d="M1385 2705 c-31 -12 -52 -13 -90 -5 -105 20 -195 -2 -208 -50 -4 -14
-14 -20 -35 -20 -17 0 -37 -6 -44 -13 -7 -7 -20 -18 -29 -23 -31 -17 -99 -118
-145 -214 -25 -52 -52 -108 -60 -123 -16 -32 -20 -172 -5 -181 5 -3 11 -17 15
-30 5 -19 -4 -34 -39 -72 -26 -28 -50 -66 -56 -89 -16 -56 -41 -105 -52 -98
-4 3 -16 -2 -26 -11 -10 -9 -47 -20 -82 -25 -86 -12 -129 -24 -175 -49 -50
-26 -156 -49 -267 -58 -76 -6 -87 -9 -87 -25 0 -17 28 -26 63 -20 4 1 15 2 25
4 9 1 23 6 30 10 8 6 12 2 12 -12 0 -12 6 -21 13 -21 23 0 86 -136 102 -223
15 -76 30 -141 43 -177 8 -25 9 -102 1 -160 -3 -30 -3 -60 2 -66 6 -7 6 -22 0
-37 -5 -14 -13 -53 -17 -87 -5 -48 -4 -64 7 -71 8 -5 9 -9 3 -9 -7 0 -15 -8
-19 -17 -7 -18 -30 -128 -43 -208 l-7 -40 -28 47 c-15 26 -35 52 -45 58 -16 9
-15 11 5 29 13 11 23 26 23 35 0 8 5 18 10 21 6 4 8 11 4 16 -3 5 5 31 19 57
31 61 40 167 23 289 -8 58 -9 90 -3 86 6 -4 8 3 3 18 -15 53 -37 181 -32 186
5 5 9 -3 22 -46 3 -8 6 -12 9 -10 2 3 -2 25 -9 49 -8 27 -15 38 -19 30 -5 -13
-7 -13 -15 -1 -12 17 -5 41 11 38 16 -3 16 61 0 67 -8 4 -12 -3 -10 -17 1 -16
-3 -22 -16 -21 -14 2 -15 -1 -6 -12 7 -8 10 -17 7 -19 -6 -7 -35 26 -40 44 -2
7 -11 23 -21 35 -10 11 -28 34 -40 49 l-22 28 0 -33 c0 -25 10 -46 38 -78 21
-25 49 -63 63 -85 28 -49 50 -180 34 -201 -8 -9 -7 -38 5 -103 14 -75 15 -105
6 -172 -6 -44 -14 -86 -18 -92 -5 -7 -17 -37 -28 -67 -15 -40 -28 -58 -50 -70
-16 -8 -33 -19 -36 -24 -4 -5 -19 -6 -33 -4 -22 4 -26 2 -26 -18 0 -17 6 -24
20 -24 11 0 20 -4 20 -10 0 -5 -6 -10 -14 -10 -14 0 -26 -21 -26 -46 0 -20 12
-17 39 7 12 12 25 19 28 16 12 -13 -11 -68 -38 -91 -34 -29 -37 -61 -10 -93
22 -26 33 -30 25 -8 -5 11 -2 13 10 9 8 -3 14 -15 13 -27 -2 -17 4 -22 31 -24
20 -2 32 2 32 9 0 16 74 -57 108 -106 29 -43 57 -79 83 -105 8 -9 28 -33 43
-54 21 -27 35 -37 55 -36 18 1 20 3 8 6 -11 3 -16 11 -13 18 3 8 0 12 -7 9
-11 -4 -67 72 -67 91 0 4 -11 16 -25 27 -14 11 -23 24 -19 29 3 5 0 8 -8 7 -7
-2 -12 5 -12 14 1 10 -2 18 -7 18 -5 0 -9 7 -9 16 0 9 -5 12 -12 8 -8 -5 -9
-2 -5 9 7 19 -1 47 -14 47 -4 0 -6 -8 -3 -17 5 -17 5 -17 -6 0 -6 9 -9 21 -6
26 4 5 -3 7 -14 4 -14 -4 -20 0 -20 13 0 9 -3 14 -6 11 -4 -3 -16 0 -28 8 -25
19 -46 19 -46 2 0 -7 -7 -22 -16 -33 -15 -19 -15 -19 -10 1 7 26 -18 60 -36
49 -7 -4 0 7 15 25 31 37 58 93 63 130 5 37 11 36 32 -6 11 -21 29 -49 41 -62
12 -14 21 -38 21 -56 0 -31 21 -66 102 -172 16 -20 28 -40 28 -45 0 -5 11 -21
25 -36 14 -15 25 -32 25 -38 0 -6 12 -21 26 -35 14 -13 30 -34 35 -46 8 -21
15 -23 73 -23 59 0 64 1 59 20 -4 16 -9 18 -19 10 -14 -12 -46 4 -91 46 -27
25 -29 34 -8 34 20 0 19 16 -1 24 -22 8 -26 8 -19 -4 3 -5 2 -10 -3 -10 -6 0
-20 17 -32 38 -12 20 -28 41 -36 45 -8 5 -12 12 -9 16 2 5 -2 14 -10 21 -8 7
-15 19 -15 26 0 8 -4 14 -9 14 -5 0 -7 9 -4 20 4 15 1 19 -9 15 -8 -3 -18 6
-25 25 -9 23 -9 29 0 23 7 -3 0 5 -15 19 -24 23 -27 33 -27 94 0 77 6 107 20
99 13 -9 11 -63 -3 -68 -10 -4 -10 -7 0 -15 7 -5 10 -16 6 -25 -4 -12 -1 -17
10 -17 18 0 22 25 6 35 -15 10 -12 25 4 19 8 -3 17 -15 19 -27 3 -15 5 -12 6
10 1 22 -4 33 -16 36 -14 4 -13 5 4 6 12 0 24 -5 26 -11 3 -7 6 -3 6 10 1 13
-3 21 -8 17 -5 -3 -12 -1 -16 5 -4 6 -11 8 -16 4 -6 -3 -7 5 -4 23 5 21 4 24
-4 13 -9 -12 -11 -13 -11 -1 0 8 -7 23 -17 33 -14 16 -14 18 -1 18 15 0 18 14
32 140 2 19 9 64 16 99 10 52 10 65 -1 71 -10 7 -10 11 1 25 9 11 13 42 12
101 -1 46 2 84 6 84 5 0 9 6 9 14 0 8 -6 12 -13 9 -19 -7 -41 103 -26 128 9
14 10 24 2 37 -9 14 -10 13 -4 -7 4 -17 2 -22 -7 -19 -8 3 -13 20 -13 44 0 21
-6 45 -13 52 -7 7 -13 21 -13 31 0 9 -5 22 -12 29 -7 7 -8 12 -4 12 5 0 3 7
-4 15 -8 10 -9 15 -2 15 6 0 9 7 5 16 -4 12 -8 13 -14 3 -5 -9 -11 -4 -20 17
-7 16 -19 36 -26 45 -11 13 -11 16 2 16 8 0 15 -5 15 -11 0 -8 2 -8 8 0 4 6
17 16 29 23 20 10 23 9 23 -9 0 -11 11 -37 24 -58 13 -20 31 -62 40 -92 43
-154 66 -256 61 -269 -3 -8 2 -34 12 -59 23 -61 33 -30 20 63 -5 39 -10 80
-11 93 0 12 -4 22 -8 22 -4 0 -11 18 -14 40 -4 22 -11 43 -15 46 -5 3 -9 15
-9 26 0 29 -40 139 -58 161 -8 9 -11 17 -6 17 5 0 0 7 -10 15 -19 14 -18 15
13 15 18 0 45 8 59 19 34 23 112 48 177 55 41 5 47 4 35 -6 -8 -7 -22 -26 -30
-43 -8 -16 -26 -46 -41 -65 -14 -19 -34 -51 -45 -70 -10 -19 -22 -38 -27 -41
-4 -3 -10 -23 -13 -45 -6 -48 9 -96 29 -88 8 3 22 -3 32 -12 16 -17 18 -17 27
0 8 13 13 15 24 5 8 -6 28 -14 46 -18 29 -6 30 -8 15 -23 -24 -24 -21 -35 3
-13 24 21 80 29 80 10 0 -7 -31 -34 -69 -59 -86 -59 -102 -76 -94 -104 3 -12
9 -22 14 -22 5 0 9 -5 9 -11 0 -5 -5 -7 -12 -3 -11 7 -7 -139 7 -276 5 -48 10
-138 19 -345 4 -72 8 -167 11 -211 5 -77 4 -83 -20 -105 -35 -34 -33 -60 4
-57 32 2 57 -12 120 -71 24 -22 52 -41 61 -41 16 0 16 2 1 34 -9 19 -27 40
-40 46 -21 9 -22 13 -10 22 11 8 11 9 -4 4 -10 -3 -28 3 -42 16 -24 21 -35 46
-16 33 5 -3 13 0 17 6 4 7 3 10 -2 6 -14 -8 -47 20 -39 34 6 8 10 7 17 -5 13
-23 22 -20 35 14 6 16 7 30 2 30 -5 0 -9 -6 -9 -14 0 -8 -4 -17 -9 -21 -9 -5
2 52 11 61 2 2 20 -1 41 -5 29 -7 37 -6 37 5 0 12 4 12 23 2 12 -7 25 -17 28
-22 4 -4 7 4 7 19 0 17 -3 22 -8 15 -12 -19 -30 -2 -31 28 l-1 27 -8 -25 c-9
-28 -11 -24 -15 40 -2 25 -7 74 -11 110 -6 61 -12 220 -14 403 0 43 2 82 5 87
11 18 -5 32 -21 19 -13 -10 -14 -49 -8 -258 3 -135 8 -255 11 -266 2 -11 6
-49 7 -84 2 -39 9 -66 17 -72 21 -13 3 -22 -28 -14 -15 5 -31 8 -35 7 -5 -1
-8 2 -8 8 0 10 14 14 35 11 6 -1 3 4 -6 11 -9 7 -18 20 -22 28 -3 10 -6 6 -7
-10 -1 -23 -2 -23 -10 -5 -8 18 -9 18 -9 -6 -1 -14 4 -30 10 -36 11 -11 2 -63
-11 -63 -12 0 -20 59 -24 172 -3 71 -1 98 7 98 9 0 9 2 1 8 -17 11 -25 152
-12 210 4 18 4 31 -1 28 -12 -8 -23 72 -20 138 1 29 0 56 -3 62 -2 5 -5 45 -6
89 -1 44 1 74 4 68 3 -7 12 -13 20 -13 8 0 14 -4 14 -8 0 -5 27 -17 60 -27 33
-10 60 -21 60 -25 0 -7 78 -45 91 -45 4 0 10 -3 14 -7 4 -4 13 -4 21 -1 8 3
14 0 14 -6 0 -6 16 -11 35 -11 24 0 35 -5 35 -14 0 -8 4 -18 10 -21 6 -4 7 1
3 11 -5 14 -3 15 16 5 32 -17 45 -9 47 28 1 24 -1 30 -9 22 -13 -13 -27 -14
-27 -2 0 5 23 18 50 30 28 12 51 26 51 31 5 39 18 53 34 40 8 -6 11 -18 8 -26
-3 -8 0 -14 7 -14 6 0 0 -14 -14 -31 -30 -35 -33 -54 -10 -63 23 -9 36 3 29
25 -4 11 -2 19 4 19 6 0 11 11 11 25 0 23 3 22 45 -22 25 -25 45 -53 45 -62 0
-9 6 -28 14 -42 23 -44 40 -326 24 -384 -5 -18 -4 -61 3 -105 6 -41 12 -105
13 -142 1 -59 -2 -69 -24 -90 -13 -13 -33 -28 -45 -33 -41 -21 -75 -135 -40
-135 9 0 15 9 15 23 0 12 9 37 20 55 20 32 23 33 63 27 50 -8 67 -27 67 -72 0
-41 27 -46 35 -5 13 62 25 98 40 117 15 20 15 20 21 -2 5 -19 8 -20 20 -8 18
18 18 29 -1 21 -9 -3 -15 0 -15 10 0 8 -4 13 -9 10 -11 -7 8 75 20 88 5 6 9
20 9 32 0 13 10 31 23 41 12 10 23 25 25 32 3 12 0 12 -12 1 -14 -11 -15 -8
-12 21 2 19 4 40 5 48 0 7 7 11 14 8 8 -3 14 1 14 9 0 8 -3 14 -7 14 -4 0 -5
11 -2 25 2 14 9 25 14 25 5 0 6 5 3 10 -3 6 -2 10 4 10 5 0 12 -10 14 -23 4
-20 4 -19 6 4 0 15 -5 29 -13 32 -15 6 -14 63 1 60 17 -3 3 39 -21 66 -19 22
-19 24 -2 17 15 -5 17 -4 8 7 -7 8 -9 17 -5 20 3 4 3 7 -2 7 -4 0 -13 -8 -20
-17 -10 -14 -9 -20 7 -33 16 -13 18 -20 8 -44 -6 -16 -13 -52 -16 -80 -3 -28
-9 -55 -14 -61 -8 -11 -19 -59 -26 -120 -3 -22 -16 -67 -30 -101 -13 -33 -24
-78 -24 -100 0 -29 -3 -35 -10 -24 -9 13 -10 13 -11 0 -1 -8 -1 -20 0 -27 2
-16 -23 -10 -44 10 -16 16 -16 21 -3 55 8 20 20 36 26 34 7 -1 12 2 12 8 0 5
-7 10 -15 10 -8 0 -15 5 -15 10 0 6 4 10 9 10 4 0 8 12 8 28 0 15 6 47 12 72
6 25 14 56 16 68 4 16 11 22 20 18 8 -3 15 -1 15 4 0 6 -5 10 -10 10 -6 0 -8
11 -4 25 4 14 8 40 9 58 2 18 3 37 4 42 1 6 11 -1 22 -15 l20 -25 -14 30 c-8
17 -13 37 -11 45 2 8 7 29 10 45 4 17 13 34 21 38 7 5 11 12 8 17 -3 6 -3 27
1 47 4 21 9 32 11 26 3 -7 9 -13 15 -13 6 0 3 11 -6 25 -9 14 -14 30 -10 36 3
6 1 63 -6 127 -7 64 -12 121 -12 127 1 18 21 16 41 -4 12 -12 21 -16 21 -11 0
14 27 12 53 -4 28 -19 72 0 57 24 -7 12 -12 12 -22 2 -20 -20 -28 -14 -25 24
1 23 -3 38 -11 40 -7 1 -8 0 -2 -3 15 -7 12 -30 -4 -36 -19 -8 -72 19 -80 40
-6 14 -4 14 11 2 9 -8 14 -9 10 -2 -4 6 -3 14 2 17 5 4 12 2 16 -4 3 -5 11
-10 17 -10 6 0 3 9 -7 20 -10 11 -22 17 -26 14 -5 -3 -9 0 -9 6 0 14 42 3 52
-14 4 -6 10 -7 14 -4 3 4 21 -4 39 -17 17 -14 36 -25 42 -25 5 0 15 -10 22
-22 6 -13 9 -15 7 -5 -3 10 3 26 14 37 17 17 21 18 35 4 30 -30 18 -53 -43
-82 -73 -36 -178 -107 -185 -126 -9 -22 15 -25 41 -5 12 9 31 15 42 12 15 -4
20 0 20 16 0 15 5 21 17 19 10 -2 18 3 18 9 0 7 16 21 36 31 l37 19 5 -56 c19
-181 27 -222 56 -271 5 -8 14 -27 21 -42 7 -14 24 -29 38 -33 14 -3 34 -17 44
-31 11 -13 25 -24 31 -24 7 0 3 7 -7 15 -22 17 -17 29 8 19 9 -3 16 -12 16
-20 0 -9 12 -14 33 -15 60 -2 117 -12 135 -23 8 -5 12 -3 10 6 -2 7 4 13 12
13 10 0 16 -12 18 -37 l3 -38 -101 0 c-74 0 -102 3 -106 13 -3 8 -16 12 -33 9
-32 -4 -52 15 -30 29 11 7 11 9 -3 9 -9 0 -20 -4 -23 -10 -3 -5 -11 -10 -16
-10 -14 0 -60 51 -54 60 3 4 -2 11 -11 14 -9 4 -14 13 -10 22 3 8 2 12 -4 9
-6 -3 -11 -1 -11 4 -3 26 -4 30 -11 37 -13 12 -9 54 4 54 6 0 4 6 -5 13 -14
10 -18 32 -21 118 -1 58 -6 111 -10 117 -19 31 -25 3 -22 -101 4 -116 20 -207
43 -242 7 -11 13 -27 13 -37 0 -9 9 -22 20 -28 11 -6 20 -19 20 -30 0 -23 32
-42 56 -33 10 4 20 0 26 -10 5 -10 20 -17 34 -17 13 0 27 -6 30 -13 3 -8 18
-11 46 -9 32 4 39 2 32 -9 -7 -12 -5 -12 9 -1 10 9 27 11 46 7 16 -3 46 -2 65
4 l36 9 0 -37 c0 -20 6 -45 14 -56 7 -11 16 -29 20 -40 5 -19 1 -20 -77 -20
-45 0 -87 3 -93 7 -7 5 -23 8 -35 8 -82 0 -104 2 -115 11 -6 5 -35 11 -63 12
-45 2 -53 5 -58 25 -3 12 -11 22 -19 22 -12 0 -19 19 -15 43 2 12 -28 53 -35
47 -2 -3 -15 11 -27 29 -14 23 -16 32 -7 26 8 -5 6 2 -5 14 -11 13 -18 24 -16
25 9 3 -11 46 -22 46 -17 1 24 30 41 30 10 0 12 -7 9 -23 -6 -22 4 -50 17 -48
15 2 16 0 8 -16 -12 -21 2 -57 36 -95 13 -14 22 -30 19 -35 -3 -5 4 -10 15
-10 11 -1 29 -11 40 -22 10 -12 31 -22 46 -23 71 -4 82 -3 82 4 0 4 0 11 0 16
0 4 -8 7 -18 8 -9 1 -28 2 -42 3 -43 2 -119 69 -121 105 0 12 -3 15 -6 9 -8
-22 -25 -14 -18 8 5 16 4 19 -6 14 -9 -6 -11 -2 -7 13 4 12 0 23 -7 26 -9 3
-14 21 -13 46 0 22 -4 46 -9 53 -6 6 -11 42 -12 80 -2 58 -27 176 -30 139 -1
-7 -5 -11 -10 -8 -8 6 -6 -48 6 -114 3 -19 7 -45 9 -57 1 -13 6 -33 9 -44 6
-18 4 -21 -9 -16 -9 4 -16 1 -16 -5 0 -30 -21 13 -23 46 -1 20 -5 36 -9 36 -4
0 -5 18 -3 40 3 36 2 39 -18 36 -30 -4 -33 -34 -12 -131 33 -154 44 -183 85
-227 22 -24 40 -48 40 -54 0 -6 9 -23 21 -38 11 -14 18 -30 14 -36 -3 -5 0 -7
8 -4 8 3 20 -2 27 -11 9 -10 16 -12 24 -5 8 6 25 6 47 0 19 -5 54 -12 79 -15
25 -3 59 -8 75 -11 29 -5 154 -12 246 -13 l46 -1 -1 -61 c-1 -61 -1 -62 48
-105 26 -24 60 -47 75 -51 14 -3 28 -9 31 -14 6 -9 72 -15 85 -7 6 3 28 11 50
17 108 33 151 85 140 168 -11 78 -68 143 -124 143 -24 0 -23 14 10 111 23 66
24 107 4 135 -12 18 -12 24 1 42 20 30 38 28 30 -2 -4 -16 0 -30 11 -42 20
-20 19 -68 -3 -98 -15 -22 -19 -46 -6 -46 12 0 54 68 48 79 -3 5 12 23 33 40
22 17 53 53 71 79 28 42 31 54 29 112 -1 36 1 116 5 177 9 132 -5 239 -39 293
-12 19 -24 43 -28 53 -4 10 -28 27 -54 39 -40 17 -69 21 -171 22 -99 1 -126
-2 -135 -14 -7 -8 -24 -21 -39 -27 -15 -7 -43 -37 -62 -67 -68 -106 -93 -285
-56 -404 11 -35 20 -66 20 -68 0 -10 -39 -2 -43 9 -3 9 -33 11 -113 10 -94 -2
-115 1 -154 19 -25 12 -48 26 -52 32 -10 15 -19 107 -23 236 -3 98 -7 122 -28
164 -20 41 -22 54 -13 77 9 24 7 32 -14 55 -38 40 -206 166 -259 192 -25 13
-48 26 -50 28 -2 2 20 49 48 104 35 70 51 113 51 140 0 21 4 41 9 45 5 3 12
19 16 35 4 17 11 30 16 30 12 0 39 55 39 80 0 13 7 20 18 20 29 0 82 30 82 46
0 8 5 23 12 33 8 14 9 26 1 43 -8 19 -6 24 11 33 19 9 21 20 22 93 1 46 5 86
8 89 3 3 -3 16 -15 27 -11 12 -35 41 -53 66 -17 25 -39 45 -47 46 -48 2 -86
31 -116 87 -8 17 -32 36 -59 48 -54 22 -57 23 -109 4z m-216 -56 c-13 -10 -27
-19 -31 -19 -8 0 -11 -30 -3 -30 2 0 23 10 45 21 36 19 45 20 65 9 27 -14 24
-30 -5 -30 -25 0 -50 -10 -50 -21 0 -4 30 -6 68 -3 l67 4 -45 -15 c-95 -32
-170 -12 -170 46 0 22 8 34 32 49 38 23 60 14 27 -11z m132 19 c22 -6 39 -15
39 -19 0 -20 -25 -18 -73 5 -39 19 -46 25 -28 26 13 0 41 -5 62 -12z m104 -3
c-51 -19 -65 -18 -41 0 11 8 34 15 50 15 30 -1 30 -1 -9 -15z m109 -74 c16
-18 16 -19 -16 -23 -39 -4 -121 17 -98 25 37 13 47 15 71 16 14 1 34 -7 43
-18z m-429 -13 c6 -13 27 -32 49 -42 37 -18 42 -18 125 -2 47 9 100 16 117 16
33 0 93 -17 108 -31 15 -13 -13 -38 -55 -49 -45 -12 -66 -32 -75 -67 -9 -36
33 -73 82 -73 27 0 37 -5 41 -20 3 -11 9 -20 14 -20 19 0 7 -21 -35 -62 -36
-36 -43 -49 -39 -71 10 -52 67 -72 101 -35 36 39 62 71 62 77 0 3 15 16 33 28
25 18 39 21 62 14 27 -7 30 -11 29 -50 -1 -53 -11 -63 -71 -66 -45 -2 -48 -3
-44 -26 9 -53 6 -73 -12 -77 -23 -5 -48 27 -41 51 6 20 -6 23 -24 5 -18 -18
-14 -36 14 -65 21 -21 24 -30 16 -47 -8 -18 -18 -21 -63 -20 -30 0 -60 3 -66
7 -6 4 -14 4 -16 0 -3 -5 -54 -7 -114 -5 -349 8 -381 13 -437 68 -55 54 -72
152 -41 242 15 43 74 162 84 172 4 3 24 31 45 63 67 100 129 135 151 85z m490
-8 c3 -5 -1 -10 -10 -10 -9 0 -13 5 -10 10 3 6 8 10 10 10 2 0 7 -4 10 -10z
m2 -45 c26 -9 56 -20 66 -26 13 -7 23 -7 32 1 10 8 18 3 34 -23 12 -19 21 -37
21 -40 0 -4 -29 9 -65 29 -51 28 -74 35 -106 32 -37 -3 -42 0 -45 20 -5 26 1
27 63 7z m93 -5 c0 -5 -2 -10 -4 -10 -3 0 -8 5 -11 10 -3 6 -1 10 4 10 6 0 11
-4 11 -10z m-21 -76 c49 -26 65 -44 39 -44 -29 1 -171 58 -157 63 31 12 69 6
118 -19z m-219 -14 c0 -14 -40 -53 -47 -46 -8 7 25 56 37 56 6 0 10 -4 10 -10z
m178 -36 c60 -20 81 -23 100 -15 29 14 32 14 32 -2 0 -7 -21 -18 -47 -24 -41
-9 -57 -8 -113 9 -100 32 -112 37 -105 48 10 16 52 11 133 -16z m-40 -53 c9
-5 26 -13 37 -17 17 -7 14 -9 -14 -12 -34 -3 -81 14 -81 30 0 11 36 10 58 -1z
m172 -44 c0 -43 -8 -50 -34 -32 -11 8 -28 15 -38 15 -12 0 -16 5 -11 18 9 23
23 32 56 32 24 0 27 -4 27 -33z m-142 -24 c-10 -2 -28 -2 -40 0 -13 2 -5 4 17
4 22 1 32 -1 23 -4z m-68 -69 c11 -13 10 -16 -9 -21 -15 -4 -20 -11 -16 -21 7
-19 -11 -31 -36 -25 -26 7 -24 41 4 64 27 23 41 24 57 3z m-730 -244 c0 -6 -7
-25 -17 -43 -22 -43 -43 -124 -43 -169 0 -43 -15 -88 -30 -88 -5 0 -10 5 -10
11 0 6 -10 24 -21 41 l-21 29 20 42 c11 23 26 58 33 77 22 59 89 134 89 100z
m90 -20 c0 -5 -6 -24 -14 -42 -26 -62 -69 -208 -74 -253 -5 -47 -14 -54 -38
-30 -29 29 6 241 52 313 15 22 74 33 74 12z m64 -31 c-4 -66 -18 -139 -35
-187 -10 -29 -19 -69 -19 -88 0 -54 -13 -72 -51 -66 l-31 5 6 61 c4 33 15 84
26 111 10 28 26 75 36 106 14 45 21 55 35 52 14 -4 16 0 12 17 -4 17 -2 21 8
18 8 -3 13 -16 13 -29z m156 -9 c23 -83 27 -125 21 -223 -3 -60 -4 -111 -2
-113 2 -2 10 1 17 7 15 12 10 281 -6 323 -8 21 -7 28 6 33 22 8 59 -31 73 -76
19 -65 9 -277 -15 -300 -8 -8 -123 -4 -155 6 l-26 8 18 75 c10 41 19 112 19
158 0 75 2 82 20 82 23 0 27 15 5 24 -20 7 -19 28 2 24 9 -2 19 -14 23 -28z
m-89 10 c17 -10 19 -22 19 -110 0 -76 -5 -113 -20 -152 -11 -29 -20 -60 -20
-70 0 -21 -11 -24 -61 -20 -32 3 -38 7 -28 18 6 7 12 35 13 61 1 27 10 64 19
83 14 26 35 143 37 198 0 6 23 1 41 -8z m283 -27 c32 -49 55 -199 38 -239 -7
-14 -12 -35 -12 -47 0 -17 -9 -25 -41 -35 -22 -7 -44 -10 -49 -7 -4 3 -2 33 6
68 15 64 16 277 2 277 -5 0 -8 5 -8 10 0 25 42 7 64 -27z m69 -24 l17 -24 -5
41 c-6 40 -5 41 18 37 43 -8 61 -121 34 -208 -17 -54 -59 -125 -74 -125 -16 0
-16 5 2 57 18 52 5 175 -26 235 -33 65 -19 60 34 -13z m115 45 c18 -8 32 -23
32 -32 0 -23 -32 -112 -41 -112 -4 0 -7 24 -8 53 0 30 -5 66 -10 80 -12 32
-13 31 27 11z m-848 -194 c7 -17 11 -32 9 -33 -2 -1 -21 -10 -41 -20 -21 -9
-38 -21 -38 -27 0 -15 11 -13 59 11 24 11 44 19 46 17 2 -2 6 -15 10 -29 6
-23 2 -29 -32 -46 -87 -44 -183 -114 -183 -133 0 -11 7 -20 15 -20 8 0 15 5
15 10 0 6 5 10 11 10 6 0 20 11 31 25 11 14 26 25 34 25 8 0 14 5 14 10 0 6 5
10 12 10 6 0 19 7 29 16 9 8 24 16 32 18 8 1 22 8 30 14 18 15 23 9 32 -41 5
-24 4 -37 -4 -37 -6 0 -46 -24 -88 -54 -75 -51 -80 -53 -130 -49 -29 3 -50 9
-47 14 3 5 1 9 -5 9 -16 0 -4 57 19 90 12 17 26 28 31 25 5 -4 9 2 9 12 0 19
60 125 85 150 8 8 15 23 15 34 0 29 16 23 30 -11z m138 -140 c14 -12 31 -35
38 -53 26 -70 61 -146 73 -161 7 -8 11 -21 9 -27 -2 -6 -17 8 -33 32 -38 57
-127 229 -119 229 3 0 18 -9 32 -20z m697 11 c3 -6 19 -17 36 -25 65 -32 177
-121 176 -138 -1 -21 -15 -24 -23 -5 -3 8 -10 14 -17 14 -22 1 -102 40 -123
61 -12 11 -32 22 -44 24 -18 2 -25 -3 -31 -25 -6 -21 -5 -26 4 -20 18 14 34
10 54 -13 10 -12 28 -24 41 -28 22 -7 31 -26 12 -26 -5 0 -10 -4 -10 -10 0
-14 16 -12 33 4 14 15 63 11 73 -6 4 -6 0 -15 -7 -20 -11 -8 -10 -9 4 -4 9 3
17 1 17 -5 0 -6 7 -6 20 1 32 17 25 -12 -8 -37 -27 -20 -30 -20 -78 -4 -30 11
-53 25 -59 39 -5 12 -13 22 -18 22 -4 0 -5 -4 -2 -10 9 -14 1 -13 -42 7 -21
10 -39 18 -40 18 -1 1 -10 29 -18 64 -13 47 -14 65 -5 76 7 8 9 19 5 25 -3 5
-3 15 0 20 8 13 42 13 50 1z m-589 -45 c1 0 18 -37 39 -80 21 -43 52 -100 69
-125 17 -25 44 -70 59 -98 41 -79 35 -103 -15 -63 -18 14 -24 26 -21 44 4 19
-5 34 -46 73 -28 27 -51 53 -51 58 0 4 -7 16 -15 25 -16 18 -65 142 -65 166 0
11 6 14 23 8 12 -3 22 -7 23 -8z m471 -3 c-4 -3 -1 -14 7 -22 8 -9 20 -45 25
-81 12 -73 15 -243 4 -254 -11 -10 -32 70 -39 149 -4 39 -13 81 -20 95 -22 44
-28 101 -13 111 16 10 45 12 36 2z m-377 -14 c0 -6 14 -28 32 -47 33 -38 88
-149 88 -179 1 -10 10 -43 21 -73 20 -55 40 -170 30 -170 -17 1 -39 52 -44
100 -7 56 -44 143 -71 164 -13 10 -30 38 -94 160 -12 22 -19 42 -17 45 7 12
55 11 55 0z m91 1 c21 0 94 -142 103 -200 4 -25 13 -67 21 -95 7 -27 16 -93
19 -145 7 -94 7 -94 -13 -76 -11 10 -19 21 -19 25 5 19 -16 141 -32 185 -10
28 -25 76 -34 106 -18 65 -56 140 -85 169 -28 28 -27 45 2 37 12 -3 29 -6 38
-6z m228 -65 c12 -41 26 -103 31 -137 5 -35 19 -97 31 -138 19 -66 20 -90 15
-205 -10 -185 -13 -209 -35 -258 -11 -25 -25 -64 -30 -87 -5 -23 -15 -47 -21
-54 -15 -14 -10 43 15 169 10 50 17 99 17 110 -1 11 -2 80 -2 153 -1 78 -6
148 -14 170 -7 20 -13 60 -15 87 -2 55 -12 88 -55 187 -22 49 -20 66 7 71 12
2 25 5 28 6 3 0 16 -33 28 -74z m-110 49 c21 -24 73 -184 81 -248 4 -39 11
-78 14 -86 12 -32 13 -336 1 -405 l-13 -70 -3 50 c-2 28 -4 67 -5 87 0 20 -6
50 -13 65 -6 15 -11 60 -10 98 1 102 -7 191 -20 222 -6 16 -18 63 -26 107 -8
45 -27 101 -44 131 -17 29 -28 55 -26 57 7 7 56 1 64 -8z m-421 -49 c19 -40
15 -48 -38 -82 -38 -26 -56 -31 -80 -27 -38 8 -38 27 -1 53 l30 21 6 -20 c4
-11 11 -17 17 -14 7 4 6 9 -2 14 -14 9 -8 22 25 57 26 28 30 28 43 -2z m972
-77 c0 -6 -7 -5 -15 2 -8 7 -15 17 -15 22 0 6 7 5 15 -2 8 -7 15 -17 15 -22z
m-1130 -8 c0 -5 -2 -10 -4 -10 -3 0 -8 5 -11 10 -3 6 -1 10 4 10 6 0 11 -4 11
-10z m235 -45 c19 -30 39 -55 45 -55 17 0 59 -76 54 -98 -3 -11 -17 -25 -30
-32 -13 -8 -24 -17 -24 -22 0 -4 -6 -8 -12 -8 -15 0 -58 -60 -58 -79 0 -7 7
-11 16 -9 8 2 14 6 12 9 -3 6 13 23 44 47 13 10 22 11 38 2 11 -6 18 -15 15
-20 -3 -6 1 -7 9 -4 12 5 13 11 6 25 -6 10 -17 16 -25 13 -8 -4 -15 -2 -15 3
0 20 13 22 44 7 31 -15 31 -15 8 3 -18 15 -20 21 -10 31 14 14 42 16 33 2 -3
-6 1 -7 10 -4 10 4 21 -1 29 -12 12 -16 11 -21 -8 -37 -11 -10 -39 -35 -61
-56 -44 -40 -85 -51 -85 -22 0 9 5 22 12 29 9 9 9 12 0 12 -6 0 -14 -11 -18
-25 -4 -17 -12 -24 -23 -21 -9 2 -35 8 -58 11 -24 4 -43 11 -43 16 0 5 -7 9
-15 9 -27 0 -16 15 62 80 103 88 115 101 103 115 -10 13 -40 -10 -152 -116
-32 -31 -61 -52 -64 -47 -3 4 -16 8 -29 8 -13 0 -29 8 -34 18 -6 9 -11 14 -11
9 0 -4 -11 0 -26 9 -14 10 -23 23 -20 31 4 9 1 11 -5 7 -7 -4 -10 -2 -8 5 3 7
9 13 14 13 6 0 16 9 23 19 7 11 17 19 23 19 5 0 19 10 30 21 14 14 24 18 28
10 4 -6 15 11 25 38 13 38 25 53 51 65 19 9 37 21 40 26 12 19 25 9 60 -45z
m1607 38 c-48 -6 -31 -19 18 -15 30 3 38 7 29 13 -9 6 5 9 41 7 30 -1 64 -8
75 -15 11 -7 16 -13 12 -13 -5 0 -5 -5 -2 -10 5 -8 11 -7 21 1 24 19 17 -25
-7 -46 -46 -43 -243 -26 -293 25 -19 19 -19 20 -1 40 15 16 29 20 79 18 35 -1
47 -3 28 -5z m-978 -16 c17 -12 17 -14 2 -20 -9 -4 -16 -11 -16 -17 0 -7 9 -5
22 4 31 22 48 19 21 -3 -22 -19 -32 -38 -14 -26 5 3 12 1 15 -4 10 -15 -12
-23 -42 -16 -24 5 -27 10 -27 50 0 47 9 54 39 32z m836 -36 c0 -18 59 -52 115
-66 100 -27 190 -18 229 22 63 63 95 -59 87 -339 -1 -52 -4 -58 -32 -75 -17
-10 -44 -41 -60 -69 -32 -56 -34 -64 -19 -64 6 0 10 5 10 11 0 18 60 89 76 89
18 0 18 -14 -1 -30 -18 -15 -20 -47 -3 -52 7 -3 -1 -20 -22 -46 -35 -45 -50
-52 -50 -26 0 9 -16 32 -35 51 l-35 35 27 32 c40 46 79 139 96 231 9 44 18 89
22 100 4 13 -1 28 -15 43 -17 18 -32 22 -79 22 -79 0 -127 10 -109 22 9 7 2 8
-19 4 -18 -3 -33 -2 -33 3 0 5 -13 11 -30 13 -16 3 -30 1 -30 -2 0 -4 -22 -10
-50 -13 -100 -12 -139 -63 -135 -178 1 -41 7 -84 13 -95 5 -10 24 -50 42 -88
31 -64 37 -70 89 -94 39 -18 74 -26 113 -27 32 0 58 -1 58 -3 0 -21 -26 -42
-50 -42 -33 0 -53 -29 -65 -94 -8 -41 -50 -76 -92 -76 -14 0 -23 -6 -23 -16 0
-18 20 -15 83 11 39 16 67 57 67 98 0 30 24 52 47 42 16 -6 16 -8 2 -18 -32
-24 -27 -77 7 -77 11 0 13 -7 8 -27 -8 -31 -12 -35 -68 -77 -23 -18 -55 -31
-82 -34 -36 -4 -42 -7 -33 -18 6 -8 10 -14 8 -15 -2 0 -12 -2 -22 -4 -10 -2
-28 -9 -40 -17 -65 -40 -123 30 -127 152 -3 91 -2 102 12 94 8 -5 9 0 6 14 -6
22 9 84 32 134 l13 27 46 -50 c51 -57 129 -115 139 -104 4 4 -6 17 -23 29 -16
11 -53 45 -82 75 -41 43 -57 70 -78 134 -25 73 -27 89 -22 181 4 63 13 120 25
152 26 70 92 152 92 115z m-732 -20 c1 -5 15 -6 30 -3 l27 5 -24 -26 c-27 -30
-19 -50 24 -61 14 -4 25 -11 25 -16 0 -17 -22 -11 -55 14 -18 14 -44 28 -59
32 -26 6 -46 24 -28 24 5 0 7 12 4 26 -5 25 -3 26 24 20 16 -4 30 -11 32 -15z
m190 -51 c6 -19 14 -100 17 -180 3 -80 8 -155 12 -167 4 -17 1 -23 -11 -23 -9
0 -19 0 -23 0 -12 -1 -12 34 0 49 10 12 9 13 -1 7 -11 -7 -12 2 -8 40 4 42 3
46 -8 32 -16 -22 -26 -13 -26 23 0 21 4 27 15 23 8 -4 15 -1 15 5 0 6 -8 11
-17 12 -16 0 -16 1 1 8 23 9 28 31 21 88 -5 31 -10 41 -21 36 -19 -7 -18 7 3
22 18 13 12 30 -17 45 -16 8 -18 8 -14 -5 4 -8 13 -15 22 -15 15 0 15 -2 0
-17 -16 -15 -19 -15 -42 1 -23 14 -24 19 -14 36 7 11 18 20 24 20 6 0 17 7 24
15 11 14 14 13 25 -2 7 -10 17 -34 23 -53z m-778 -1 c7 -11 10 -23 7 -25 -6
-6 -37 25 -37 37 0 17 19 9 30 -12z m472 -21 c-9 -9 -15 -9 -24 0 -9 9 -7 12
12 12 19 0 21 -3 12 -12z m-6 -43 c-3 -13 -9 -32 -15 -42 -9 -14 -10 -10 -7
22 6 49 4 45 16 45 6 0 8 -11 6 -25z m1056 -10 c7 -3 40 -7 73 -9 33 -3 70 -8
83 -12 27 -8 29 -40 3 -54 -20 -10 -183 -14 -193 -4 -3 3 -34 7 -67 9 -51 2
-66 8 -88 29 -42 42 -11 57 104 50 40 -2 78 -6 85 -9z m-233 -39 c9 -11 7 -15
-8 -19 -14 -3 -17 0 -14 14 6 23 7 23 22 5z m60 -76 c-28 -25 -73 -122 -62
-134 13 -13 21 -5 27 28 8 39 41 86 62 86 18 0 18 -25 -2 -55 -12 -19 -13 -27
-3 -43 10 -16 10 -28 0 -60 -8 -22 -11 -44 -8 -49 9 -15 -10 -36 -27 -30 -19
7 -67 111 -68 147 -1 14 10 48 23 75 12 28 22 52 22 55 -1 3 14 5 32 5 l33 0
-29 -25z m341 11 c0 -31 -35 -172 -50 -201 -35 -67 -110 -122 -160 -115 -45 5
-50 15 -8 15 20 0 46 9 61 20 14 11 29 20 35 20 10 0 84 144 80 157 -2 8 8 58
18 96 5 17 24 24 24 8z m-1646 -16 c-4 -8 -11 -15 -16 -15 -6 0 -5 6 2 15 7 8
14 15 16 15 2 0 1 -7 -2 -15z m1393 -11 c-3 -3 -12 -4 -19 -1 -8 3 -5 6 6 6
11 1 17 -2 13 -5z m-1011 -194 c-3 -48 -17 -120 -32 -165 -14 -44 -28 -97 -31
-118 -9 -69 -19 -92 -36 -89 -14 2 -17 -5 -17 -38 0 -23 -5 -40 -11 -40 -18 0
-5 110 19 156 11 21 23 58 27 81 4 24 16 62 27 85 14 28 23 76 29 143 4 55 9
105 9 110 1 6 6 -1 12 -15 6 -15 8 -60 4 -110z m1077 109 c-4 -15 -8 -17 -14
-8 -8 14 -3 29 11 29 4 0 6 -9 3 -21z m-7 -86 c-11 -11 -19 6 -11 24 8 17 8
17 12 0 3 -10 2 -21 -1 -24z m-96 -7 c0 -3 -4 -8 -10 -11 -5 -3 -10 -1 -10 4
0 6 5 11 10 11 6 0 10 -2 10 -4z m-584 -31 c-4 -12 -2 -13 13 -3 11 7 26 8 37
3 11 -5 21 -9 24 -9 3 -1 15 -7 28 -14 15 -9 46 -11 92 -8 57 4 70 3 70 -9 0
-8 5 -15 11 -15 6 0 9 7 5 15 -6 17 -2 18 32 8 18 -4 20 -8 10 -15 -8 -5 -3
-6 15 -2 31 7 36 -9 12 -40 -12 -15 -28 -19 -84 -20 -38 0 -75 4 -82 10 -8 6
-27 11 -43 12 -16 1 -37 8 -45 16 -23 20 -119 47 -126 35 -8 -12 17 -37 33
-31 6 2 19 -4 28 -12 14 -15 13 -17 -8 -25 -13 -6 -18 -10 -11 -10 6 -1 19 -4
28 -7 9 -4 15 -3 14 2 -4 21 2 26 16 14 12 -10 15 -10 15 0 0 9 7 7 22 -6 12
-10 18 -13 14 -6 -5 9 -2 10 16 3 60 -23 97 -31 125 -27 25 2 30 0 25 -12 -3
-9 4 -6 17 7 28 28 33 24 21 -20 -10 -34 -11 -35 -65 -37 -31 -1 -55 3 -55 8
0 6 5 10 10 10 6 0 10 7 10 15 0 23 -15 18 -27 -8 -9 -20 -17 -23 -45 -19 -18
3 -42 11 -53 18 -11 8 -27 14 -36 14 -9 0 -22 7 -29 15 -7 8 -16 12 -21 9 -5
-3 -9 -1 -9 5 0 5 -6 16 -12 23 -7 7 -23 32 -36 56 -19 35 -21 42 -8 42 9 0
16 4 16 9 0 5 8 12 18 14 9 3 19 5 21 6 2 0 1 -6 -3 -14z m709 -234 c3 -5 1
-12 -5 -16 -5 -3 -10 1 -10 9 0 18 6 21 15 7z m-28 -236 c-6 -63 -4 -75 8 -75
10 0 15 11 16 33 1 17 2 37 4 42 1 6 3 13 3 17 1 4 15 3 30 -3 26 -9 82 -80
82 -104 0 -6 -18 -28 -39 -48 -63 -60 -198 -81 -259 -41 -18 12 -21 18 -12 24
9 6 8 13 -6 29 -25 28 -34 26 -34 -7 0 -48 69 -92 142 -92 51 0 139 29 168 55
33 30 35 8 2 -25 -17 -16 -40 -30 -51 -30 -11 0 -22 -4 -25 -9 -12 -18 -91
-22 -143 -6 -29 9 -53 19 -53 24 0 4 -10 13 -23 20 -30 16 -49 61 -45 108 4
45 46 78 114 89 34 5 44 10 44 25 0 11 5 19 10 19 6 0 10 -27 10 -60 0 -47 3
-60 15 -60 12 0 15 15 15 75 0 63 3 75 16 75 15 0 16 -9 11 -75z m-2367 -46
c0 -6 -4 -7 -10 -4 -5 3 -10 11 -10 16 0 6 5 7 10 4 6 -3 10 -11 10 -16z m450
-149 c0 -5 -2 -10 -4 -10 -3 0 -8 5 -11 10 -3 6 -1 10 4 10 6 0 11 -4 11 -10z"/>
<path d="M961 2481 c-20 -13 -4 -32 22 -26 38 9 49 -7 42 -59 -7 -43 -9 -46
-24 -32 -27 24 -67 36 -80 23 -30 -30 10 -91 78 -120 24 -9 20 -11 -39 -21
-57 -10 -66 -14 -74 -38 -12 -33 5 -70 40 -88 38 -21 187 20 162 45 -2 2 -28
-2 -58 -10 -70 -19 -108 -12 -116 22 -4 13 -2 29 4 35 7 7 61 14 122 16 60 3
110 8 110 12 0 4 -21 13 -47 19 -27 7 -56 17 -65 22 -10 5 -24 9 -31 9 -13 0
-67 50 -67 63 0 13 27 7 41 -9 20 -25 85 -54 120 -54 27 0 31 3 26 21 -4 15 1
27 16 40 34 27 11 36 -25 9 -23 -17 -35 -20 -47 -13 -24 15 -25 50 -2 65 24
15 28 38 6 38 -8 0 -24 9 -35 20 -21 21 -55 26 -79 11z"/>
<path d="M1205 2370 c-6 -10 14 -23 31 -19 21 4 32 -2 37 -21 7 -28 27 -25 27
5 0 14 -8 29 -19 35 -25 13 -68 13 -76 0z"/>
<path d="M1613 2194 c-3 -8 -1 -20 5 -26 16 -16 47 -5 50 20 3 18 -1 22 -23
22 -14 0 -28 -7 -32 -16z"/>
<path d="M550 1600 c0 -5 8 -6 17 -3 13 5 15 3 9 -13 -5 -14 -4 -16 5 -7 6 6
8 16 5 22 -9 14 -36 15 -36 1z"/>
<path d="M621 1488 c-19 -40 -19 -41 -1 -20 12 14 24 21 32 16 7 -4 10 -3 5 1
-4 5 5 15 20 21 l28 13 -29 -6 c-20 -4 -27 -3 -22 6 4 6 3 11 -2 11 -6 0 -19
-19 -31 -42z"/>
<path d="M548 1453 c7 -3 16 -2 19 1 4 3 -2 6 -13 5 -11 0 -14 -3 -6 -6z"/>
<path d="M510 1430 c0 -5 5 -10 11 -10 5 0 7 5 4 10 -3 6 -8 10 -11 10 -2 0
-4 -4 -4 -10z"/>
<path d="M1546 1511 c-3 -5 1 -11 9 -14 9 -4 12 -1 8 9 -6 16 -10 17 -17 5z"/>
<path d="M1625 1450 c3 -5 8 -10 11 -10 2 0 4 5 4 10 0 6 -5 10 -11 10 -5 0
-7 -4 -4 -10z"/>
<path d="M1477 1439 c15 -18 8 -30 -13 -22 -26 10 -14 -5 16 -21 26 -13 30
-13 30 0 0 9 -4 12 -10 9 -5 -3 -10 -1 -10 4 0 6 5 11 10 11 6 0 10 5 10 12 0
6 -3 8 -7 5 -3 -4 -13 -1 -22 6 -14 10 -14 10 -4 -4z"/>
<path d="M1525 1410 c-3 -5 -1 -10 4 -10 6 0 11 5 11 10 0 6 -2 10 -4 10 -3 0
-8 -4 -11 -10z"/>
<path d="M1600 1381 c0 -5 -9 -11 -20 -14 -21 -5 -28 -27 -9 -27 5 0 8 4 5 9
-3 5 3 11 14 14 11 3 20 1 20 -4 0 -5 -5 -9 -11 -9 -5 0 -7 -4 -4 -10 10 -16
22 -12 28 10 3 11 0 20 -6 20 -7 0 -5 5 3 10 13 8 12 10 -2 10 -10 0 -18 -4
-18 -9z"/>
<path d="M795 1320 c-3 -5 1 -10 9 -10 9 0 16 -7 16 -15 0 -8 -4 -15 -8 -15
-4 0 -28 -18 -52 -40 -25 -22 -48 -40 -53 -40 -13 0 -77 -63 -77 -76 0 -6 7
-15 16 -18 22 -9 24 -8 18 8 -3 9 12 26 43 47 54 37 66 47 93 71 10 9 20 14
23 12 2 -2 11 4 21 14 15 18 15 20 -8 45 -28 30 -32 32 -41 17z"/>
<path d="M830 1130 c-13 -8 -12 -10 3 -10 9 0 17 5 17 10 0 12 -1 12 -20 0z"/>
<path d="M910 1059 c0 -5 5 -7 10 -4 6 3 10 8 10 11 0 2 -4 4 -10 4 -5 0 -10
-5 -10 -11z"/>
<path d="M2538 1343 c12 -2 30 -2 40 0 9 3 -1 5 -23 4 -22 0 -30 -2 -17 -4z"/>
<path d="M2290 1281 c0 -13 41 -41 60 -41 11 1 10 4 -5 16 -34 26 -55 36 -55
25z"/>
<path d="M2640 1240 c-14 -11 -34 -20 -45 -20 -11 -1 -29 -6 -40 -11 -15 -7
-10 -8 21 -4 45 5 104 31 104 46 0 14 -12 11 -40 -11z"/>
<path d="M1680 1250 c0 -5 5 -10 11 -10 5 0 7 5 4 10 -3 6 -8 10 -11 10 -2 0
-4 -4 -4 -10z"/>
<path d="M1730 1019 c0 -5 5 -7 10 -4 6 3 10 8 10 11 0 2 -4 4 -10 4 -5 0 -10
-5 -10 -11z"/>
<path d="M2408 1153 c7 -3 16 -2 19 1 4 3 -2 6 -13 5 -11 0 -14 -3 -6 -6z"/>
<path d="M2368 1143 c7 -3 16 -2 19 1 4 3 -2 6 -13 5 -11 0 -14 -3 -6 -6z"/>
<path d="M2500 1141 c0 -5 7 -15 17 -22 15 -13 15 -12 4 9 -12 23 -21 28 -21
13z"/>
<path d="M2611 1114 c0 -11 3 -14 6 -6 3 7 2 16 -1 19 -3 4 -6 -2 -5 -13z"/>
<path d="M2573 1103 c0 -9 4 -10 14 -2 7 6 13 12 13 14 0 1 -6 2 -13 2 -8 0
-14 -6 -14 -14z"/>
<path d="M2091 766 c-8 -14 -19 -23 -24 -19 -6 4 -7 1 -2 -6 5 -9 12 -7 27 9
11 11 18 25 16 31 -2 6 -10 -1 -17 -15z"/>
<path d="M1915 770 c3 -5 8 -10 11 -10 2 0 4 5 4 10 0 6 -5 10 -11 10 -5 0 -7
-4 -4 -10z"/>
<path d="M1946 763 c-6 -14 -5 -15 5 -6 7 7 10 15 7 18 -3 3 -9 -2 -12 -12z"/>
<path d="M2020 765 c6 -8 9 -19 5 -25 -3 -5 -2 -10 4 -10 6 0 15 9 21 19 13
25 13 41 0 21 -6 -10 -10 -11 -10 -2 0 6 -7 12 -16 12 -13 0 -14 -3 -4 -15z"/>
<path d="M2100 746 c0 -2 7 -7 16 -10 8 -3 12 -2 9 4 -6 10 -25 14 -25 6z"/>
<path d="M1875 690 c3 -5 8 -10 11 -10 2 0 4 5 4 10 0 6 -5 10 -11 10 -5 0 -7
-4 -4 -10z"/>
<path d="M1900 681 c0 -6 4 -13 10 -16 6 -3 7 1 4 9 -7 18 -14 21 -14 7z"/>
<path d="M1937 679 c7 -7 15 -10 18 -7 3 3 -2 9 -12 12 -14 6 -15 5 -6 -5z"/>
<path d="M1970 660 c-9 -6 -10 -10 -3 -10 6 0 15 5 18 10 8 12 4 12 -15 0z"/>
<path d="M2412 268 c9 -26 51 -41 82 -29 22 9 26 15 18 23 -9 9 -18 9 -36 0
-19 -9 -27 -8 -36 4 -15 17 -33 19 -28 2z"/>
<path d="M673 2438 c-6 -7 -22 -48 -37 -90 -30 -87 -29 -153 4 -183 20 -18 39
-3 22 18 -24 30 -23 85 4 153 14 38 28 79 31 92 6 24 -9 30 -24 10z"/>
<path d="M520 2301 c-15 -29 -16 -152 0 -181 17 -31 18 -28 23 98 4 100 -2
121 -23 83z"/>
<path d="M230 1570 c0 -5 5 -10 11 -10 5 0 7 5 4 10 -3 6 -8 10 -11 10 -2 0
-4 -4 -4 -10z"/>
<path d="M1 1554 c0 -11 3 -14 6 -6 3 7 2 16 -1 19 -3 4 -6 -2 -5 -13z"/>
<path d="M133 1504 c1 -22 24 -30 24 -8 0 7 -4 11 -8 8 -4 -2 -9 2 -12 8 -3 7
-5 4 -4 -8z"/>
<path d="M150 1440 c-13 -8 -12 -10 3 -10 9 0 17 5 17 10 0 12 -1 12 -20 0z"/>
<path d="M26 1419 c-14 -67 -32 -487 -20 -476 7 6 22 97 26 157 0 8 5 20 10
27 6 7 5 14 -2 18 -6 4 -9 14 -5 23 7 18 17 144 17 211 0 50 -18 78 -26 40z"/>
<path d="M301 1384 c0 -11 3 -14 6 -6 3 7 2 16 -1 19 -3 4 -6 -2 -5 -13z"/>
<path d="M92 1370 c7 -10 14 -18 15 -16 6 6 -9 36 -18 36 -5 0 -4 -9 3 -20z"/>
<path d="M67 1350 c-3 -11 -2 -22 2 -24 4 -3 8 6 9 20 2 29 -4 31 -11 4z"/>
<path d="M90 1329 c0 -5 5 -7 10 -4 6 3 10 8 10 11 0 2 -4 4 -10 4 -5 0 -10
-5 -10 -11z"/>
<path d="M425 1309 c-11 -16 -1 -19 13 -3 7 8 8 14 3 14 -5 0 -13 -5 -16 -11z"/>
<path d="M106 1223 c-4 -49 -4 -95 -1 -104 3 -9 2 -34 -4 -57 -9 -44 1 -65 18
-35 14 27 19 275 5 280 -8 3 -14 -26 -18 -84z"/>
<path d="M306 1295 c-9 -26 -7 -32 5 -12 6 10 9 21 6 23 -2 3 -7 -2 -11 -11z"/>
<path d="M70 1289 c0 -5 5 -7 10 -4 6 3 10 8 10 11 0 2 -4 4 -10 4 -5 0 -10
-5 -10 -11z"/>
<path d="M2136 1285 c-16 -17 -56 -138 -56 -172 0 -19 17 -43 32 -43 4 0 5 12
2 28 -7 37 21 141 46 167 11 12 20 24 20 28 0 13 -28 7 -44 -8z"/>
<path d="M434 1267 c-8 -18 -7 -26 5 -37 13 -12 14 -12 8 3 -3 9 -2 19 4 22 5
4 9 3 8 -2 -1 -4 -1 -15 0 -23 1 -12 3 -12 10 -2 4 7 17 14 29 15 26 2 18 17
-9 17 -11 0 -22 7 -25 15 -8 21 -17 19 -30 -8z"/>
<path d="M332 1249 c1 -17 4 -25 8 -18 7 10 2 49 -5 49 -2 0 -3 -14 -3 -31z"/>
<path d="M311 1244 c0 -11 3 -14 6 -6 3 7 2 16 -1 19 -3 4 -6 -2 -5 -13z"/>
<path d="M2030 1216 c-11 -31 -12 -51 -4 -83 11 -40 22 -25 26 35 5 65 -6 89
-22 48z"/>
<path d="M235 1179 c-4 -5 -4 -13 -1 -16 3 -4 6 0 6 8 0 11 2 11 10 -1 6 -9
10 -10 10 -3 0 17 -17 25 -25 12z"/>
<path d="M432 1148 c2 -5 8 -9 13 -9 5 0 11 4 13 9 1 5 -4 9 -13 9 -9 0 -14
-4 -13 -9z"/>
<path d="M1510 1151 c0 -5 7 -11 15 -15 8 -3 15 -1 15 3 0 5 -7 11 -15 15 -8
3 -15 1 -15 -3z"/>
<path d="M1670 1140 c0 -5 5 -10 10 -10 6 0 10 5 10 10 0 6 -4 10 -10 10 -5 0
-10 -4 -10 -10z"/>
<path d="M422 1110 c0 -14 2 -19 5 -12 2 6 2 18 0 25 -3 6 -5 1 -5 -13z"/>
<path d="M465 1119 c-4 -6 -5 -12 -2 -15 2 -3 7 2 10 11 7 17 1 20 -8 4z"/>
<path d="M142 1080 c0 -14 2 -19 5 -12 2 6 2 18 0 25 -3 6 -5 1 -5 -13z"/>
<path d="M61 1054 c0 -11 3 -14 6 -6 3 7 2 16 -1 19 -3 4 -6 -2 -5 -13z"/>
<path d="M450 1048 c0 -10 4 -18 9 -18 5 0 11 8 13 18 3 11 0 19 -8 19 -8 0
-14 -9 -14 -19z"/>
<path d="M1502 1054 c-16 -17 -15 -24 3 -24 8 0 15 4 15 10 0 5 7 7 15 4 8 -4
15 -2 15 4 0 16 -34 20 -48 6z"/>
<path d="M371 1034 c0 -11 3 -14 6 -6 3 7 2 16 -1 19 -3 4 -6 -2 -5 -13z"/>
<path d="M578 1033 c7 -3 16 -2 19 1 4 3 -2 6 -13 5 -11 0 -14 -3 -6 -6z"/>
<path d="M1465 1010 c-3 -6 1 -7 9 -4 18 7 21 14 7 14 -6 0 -13 -4 -16 -10z"/>
<path d="M381 994 c0 -11 3 -14 6 -6 3 7 2 16 -1 19 -3 4 -6 -2 -5 -13z"/>
<path d="M1117 993 c-4 -3 -7 -11 -7 -17 0 -6 5 -5 12 2 6 6 9 14 7 17 -3 3
-9 2 -12 -2z"/>
<path d="M141 974 c0 -11 3 -14 6 -6 3 7 2 16 -1 19 -3 4 -6 -2 -5 -13z"/>
<path d="M350 985 c0 -5 5 -17 10 -25 5 -8 10 -10 10 -5 0 6 -5 17 -10 25 -5
8 -10 11 -10 5z"/>
<path d="M580 980 c0 -5 5 -10 11 -10 5 0 7 5 4 10 -3 6 -8 10 -11 10 -2 0 -4
-4 -4 -10z"/>
<path d="M1000 970 c-8 -5 -12 -12 -9 -15 4 -3 12 1 19 10 14 17 11 19 -10 5z"/>
<path d="M1600 971 c0 -6 4 -13 10 -16 6 -3 7 1 4 9 -7 18 -14 21 -14 7z"/>
<path d="M1125 959 c-12 -18 3 -22 20 -5 14 14 14 16 1 16 -8 0 -18 -5 -21
-11z"/>
<path d="M406 933 c-4 -16 -6 -48 -5 -73 1 -25 -1 -63 -5 -85 -4 -22 -3 -52 3
-65 5 -14 10 -19 10 -12 1 7 5 11 10 8 12 -8 44 31 36 43 -8 14 -25 14 -25 0
0 -5 5 -7 11 -3 7 4 10 1 7 -6 -2 -8 -9 -15 -15 -17 -16 -6 -24 26 -13 47 13
23 13 177 1 184 -5 4 -12 -6 -15 -21z"/>
<path d="M583 948 c3 -9 1 -19 -6 -22 -9 -3 -9 -5 0 -5 18 -1 27 19 13 32 -10
9 -12 8 -7 -5z"/>
<path d="M768 937 c-3 -14 1 -69 8 -123 8 -58 10 -135 7 -187 -5 -79 -4 -91
14 -116 18 -23 21 -43 21 -124 1 -101 4 -120 28 -175 9 -18 12 -41 9 -52 -3
-11 0 -30 7 -42 7 -13 13 -32 14 -43 3 -67 5 -75 19 -75 20 0 19 36 -1 96 -8
25 -13 57 -10 70 4 14 0 37 -9 55 -9 17 -18 67 -21 117 -3 48 -7 92 -9 99 -2
6 0 13 4 15 14 6 -9 67 -28 73 -18 5 -19 13 -15 78 3 39 11 75 17 79 7 4 8 8
2 8 -5 0 -11 28 -12 63 -3 102 -17 200 -29 204 -6 2 -14 -7 -16 -20z"/>
<path d="M68 928 c-15 -23 -48 -118 -48 -137 0 -20 26 -11 37 12 14 31 43 123
43 136 0 18 -17 12 -32 -11z"/>
<path d="M1530 940 c-9 -6 -10 -10 -3 -10 6 0 15 5 18 10 8 12 4 12 -15 0z"/>
<path d="M146 932 c-4 -7 -12 -9 -18 -6 -6 4 -8 2 -4 -4 3 -5 1 -12 -6 -14 -6
-2 -8 -10 -4 -16 10 -16 26 -15 26 2 0 8 5 16 12 18 6 2 9 10 6 18 -3 11 -6
11 -12 2z"/>
<path d="M350 931 c0 -6 4 -13 10 -16 6 -3 7 1 4 9 -7 18 -14 21 -14 7z"/>
<path d="M997 933 c-17 -31 -15 -66 8 -117 13 -30 26 -66 29 -78 8 -47 29
-114 43 -141 23 -45 54 -248 57 -369 1 -53 4 -68 18 -71 10 -3 15 0 12 8 -3 7
0 16 6 20 9 6 9 9 1 15 -16 9 -2 42 15 36 8 -3 14 -1 14 4 0 6 -9 10 -19 10
-14 0 -18 5 -14 20 3 11 1 26 -5 33 -6 7 -10 47 -9 90 1 42 -2 77 -7 77 -4 0
-6 11 -4 25 3 14 2 25 -2 25 -12 0 -60 130 -60 165 0 33 20 60 28 37 5 -17 22
-15 22 2 0 23 -31 28 -53 9 -20 -17 -20 -17 -14 5 5 23 -27 111 -45 123 -6 4
-7 17 -3 30 5 19 4 21 -5 9 -9 -12 -11 -10 -7 13 4 27 2 34 -6 20z"/>
<path d="M1150 930 c0 -5 5 -10 11 -10 5 0 7 5 4 10 -3 6 -8 10 -11 10 -2 0
-4 -4 -4 -10z"/>
<path d="M711 906 c-7 -8 -8 -17 -3 -20 6 -3 13 1 16 10 9 23 2 28 -13 10z"/>
<path d="M880 868 c0 -24 7 -68 16 -98 13 -48 19 -94 38 -295 2 -22 8 -58 14
-80 6 -22 9 -56 7 -75 -1 -19 2 -38 7 -41 12 -7 37 -106 48 -184 4 -33 11 -68
15 -77 9 -23 65 -21 65 2 0 9 6 22 13 30 10 12 9 12 -5 1 -10 -7 -18 -19 -18
-26 0 -6 -7 -12 -15 -12 -15 0 -22 27 -24 87 -1 38 -27 163 -41 195 -13 31
-19 105 -9 105 6 0 1 10 -11 22 -25 27 -25 44 -2 57 9 6 11 11 5 11 -7 0 -13
9 -13 20 0 10 -5 29 -11 42 -6 15 -7 43 -1 80 5 32 6 55 2 53 -13 -8 -30 77
-19 96 12 23 12 39 -1 19 -15 -23 -24 -3 -22 47 2 43 -8 62 -30 63 -5 0 -8
-19 -8 -42z"/>
<path d="M933 896 c4 -10 7 -24 7 -32 0 -8 4 -14 9 -14 11 0 1 49 -12 57 -7 4
-8 0 -4 -11z"/>
<path d="M1082 898 c-16 -16 -15 -35 2 -41 11 -4 13 -1 9 10 -4 11 -2 14 5 9
14 -8 15 3 4 21 -6 10 -11 10 -20 1z"/>
<path d="M1120 901 c0 -13 30 -22 52 -16 10 4 16 11 12 16 -3 6 -12 5 -22 -3
-12 -10 -16 -10 -19 0 -5 14 -23 17 -23 3z"/>
<path d="M470 890 c0 -5 5 -10 10 -10 6 0 10 5 10 10 0 6 -4 10 -10 10 -5 0
-10 -4 -10 -10z"/>
<path d="M1520 890 c-8 -5 -12 -12 -9 -15 4 -3 12 1 19 10 14 17 11 19 -10 5z"/>
<path d="M835 880 c3 -5 8 -10 11 -10 2 0 4 5 4 10 0 6 -5 10 -11 10 -5 0 -7
-4 -4 -10z"/>
<path d="M596 847 c3 -10 9 -15 12 -12 3 3 0 11 -7 18 -10 9 -11 8 -5 -6z"/>
<path d="M706 852 c-3 -5 1 -9 9 -9 8 0 12 4 9 9 -3 4 -7 8 -9 8 -2 0 -6 -4
-9 -8z"/>
<path d="M1115 850 c-3 -6 1 -7 9 -4 18 7 21 14 7 14 -6 0 -13 -4 -16 -10z"/>
<path d="M1050 842 c0 -4 10 -9 22 -9 18 -2 20 0 8 7 -18 12 -30 13 -30 2z"/>
<path d="M461 814 c0 -11 3 -14 6 -6 3 7 2 16 -1 19 -3 4 -6 -2 -5 -13z"/>
<path d="M75 801 c-3 -5 -1 -12 5 -16 5 -3 10 1 10 9 0 18 -6 21 -15 7z"/>
<path d="M586 798 c3 -4 9 -8 15 -8 5 0 9 4 9 8 0 5 -7 9 -15 9 -8 0 -12 -4
-9 -9z"/>
<path d="M1114 780 c0 -11 5 -20 11 -20 20 0 25 12 10 26 -18 18 -21 18 -21
-6z"/>
<path d="M96 771 c-4 -7 -5 -15 -2 -18 9 -9 19 4 14 18 -4 11 -6 11 -12 0z"/>
<path d="M300 776 c0 -2 7 -7 16 -10 8 -3 12 -2 9 4 -6 10 -25 14 -25 6z"/>
<path d="M42 763 c-6 -2 -10 -9 -7 -13 7 -11 35 -2 35 11 0 10 -8 10 -28 2z"/>
<path d="M601 761 c-7 -5 -11 -15 -9 -22 3 -10 8 -7 17 9 13 24 12 26 -8 13z"/>
<path d="M1463 763 c4 -3 1 -13 -6 -21 -11 -13 -9 -14 10 -2 22 14 22 30 1 30
-6 0 -8 -3 -5 -7z"/>
<path d="M1170 751 c0 -8 -7 -11 -17 -6 -15 5 -16 4 -5 -6 9 -10 15 -10 24 -1
6 6 9 15 5 19 -4 3 -7 1 -7 -6z"/>
<path d="M330 735 c0 -8 2 -15 4 -15 2 0 6 7 10 15 3 8 1 15 -4 15 -6 0 -10
-7 -10 -15z"/>
<path d="M0 703 l1 -38 14 25 c19 33 19 50 0 50 -11 0 -15 -11 -15 -37z"/>
<path d="M1712 721 c7 -11 16 -17 20 -15 5 3 2 12 -6 20 -21 20 -28 17 -14 -5z"/>
<path d="M60 720 c0 -5 5 -10 10 -10 6 0 10 5 10 10 0 6 -4 10 -10 10 -5 0
-10 -4 -10 -10z"/>
<path d="M454 709 c-19 -22 -19 -22 4 -10 12 6 22 16 22 21 0 15 -5 12 -26
-11z"/>
<path d="M974 714 c-18 -14 -18 -14 6 -3 31 14 36 19 24 19 -6 0 -19 -7 -30
-16z"/>
<path d="M720 707 c0 -10 8 -17 18 -17 9 0 13 4 7 8 -5 4 -13 11 -17 16 -5 5
-8 2 -8 -7z"/>
<path d="M291 694 c0 -11 3 -14 6 -6 3 7 2 16 -1 19 -3 4 -6 -2 -5 -13z"/>
<path d="M50 691 c0 -5 7 -12 16 -15 24 -9 27 -7 10 9 -17 17 -26 19 -26 6z"/>
<path d="M863 686 c0 -7 6 -13 14 -13 7 0 13 4 13 8 0 4 -6 9 -13 12 -8 3 -14
0 -14 -7z"/>
<path d="M1174 675 c-13 -20 -14 -29 -5 -38 8 -8 15 -7 26 6 8 9 10 12 3 7
-28 -24 -39 -2 -12 25 9 9 14 18 11 21 -3 3 -13 -6 -23 -21z"/>
<path d="M1115 680 c3 -5 16 -10 28 -10 18 0 19 2 7 10 -20 13 -43 13 -35 0z"/>
<path d="M430 649 c0 -16 4 -28 9 -24 14 8 25 -35 12 -48 -16 -16 -13 -31 3
-18 17 15 19 103 3 113 -21 14 -27 9 -27 -23z"/>
<path d="M190 659 c0 -5 5 -7 10 -4 6 3 10 8 10 11 0 2 -4 4 -10 4 -5 0 -10
-5 -10 -11z"/>
<path d="M976 654 c-5 -14 -4 -15 9 -4 12 10 15 10 15 -3 0 -9 -5 -19 -10 -22
-6 -4 -8 -11 -5 -16 12 -18 21 -8 20 23 0 34 -19 49 -29 22z"/>
<path d="M1090 660 c0 -5 5 -10 11 -10 5 0 7 5 4 10 -3 6 -8 10 -11 10 -2 0
-4 -4 -4 -10z"/>
<path d="M560 645 c0 -8 2 -15 4 -15 2 0 6 7 10 15 3 8 1 15 -4 15 -6 0 -10
-7 -10 -15z"/>
<path d="M700 639 c0 -11 5 -17 10 -14 6 3 10 13 10 21 0 8 -4 14 -10 14 -5 0
-10 -9 -10 -21z"/>
<path d="M861 644 c0 -11 3 -14 6 -6 3 7 2 16 -1 19 -3 4 -6 -2 -5 -13z"/>
<path d="M379 633 c0 -10 -3 -45 -6 -78 -6 -57 -8 -139 -4 -232 0 -24 6 -43
12 -43 30 0 56 -56 34 -73 -6 -5 -4 -7 5 -4 8 2 25 -5 38 -16 19 -18 22 -18
22 -3 0 9 7 19 15 22 8 4 12 10 9 15 -3 5 3 9 12 9 14 0 15 3 6 12 -9 9 -16 7
-31 -9 -11 -11 -17 -24 -14 -27 4 -3 1 -6 -5 -6 -18 0 -26 21 -11 30 10 7 10
11 0 24 -12 14 -10 16 15 17 27 2 28 2 4 6 -14 3 -28 10 -32 17 -5 6 -8 1 -8
-12 0 -15 -5 -22 -12 -19 -7 2 -12 17 -11 33 2 24 1 26 -6 9 -7 -15 -9 -11 -9
20 0 22 0 91 -1 154 -1 63 2 117 7 120 12 8 -4 51 -18 51 -5 0 -10 -8 -11 -17z"/>
<path d="M200 630 c-11 -7 -12 -12 -4 -20 8 -8 13 -6 17 9 3 12 4 21 4 21 -1
0 -9 -5 -17 -10z"/>
<path d="M1120 630 c0 -5 4 -10 9 -10 6 0 13 5 16 10 3 6 -1 10 -9 10 -9 0
-16 -4 -16 -10z"/>
<path d="M1422 616 c1 -14 5 -23 9 -20 7 4 0 44 -7 44 -2 0 -3 -11 -2 -24z"/>
<path d="M1790 630 c0 -5 10 -10 23 -10 18 0 19 2 7 10 -19 13 -30 13 -30 0z"/>
<path d="M1200 619 c0 -5 5 -7 10 -4 6 3 10 8 10 11 0 2 -4 4 -10 4 -5 0 -10
-5 -10 -11z"/>
<path d="M166 612 c-7 -12 12 -38 21 -28 4 5 2 11 -5 13 -6 3 -10 9 -6 14 3 5
3 9 0 9 -3 0 -7 -4 -10 -8z"/>
<path d="M317 613 c-10 -9 -9 -23 2 -23 5 0 11 7 15 15 5 15 -5 20 -17 8z"/>
<path d="M1025 609 c-4 -6 -5 -12 -2 -15 2 -3 7 2 10 11 7 17 1 20 -8 4z"/>
<path d="M580 596 c0 -8 5 -18 10 -21 6 -3 10 1 10 9 0 8 -4 18 -10 21 -5 3
-10 -1 -10 -9z"/>
<path d="M1808 593 c7 -3 16 -2 19 1 4 3 -2 6 -13 5 -11 0 -14 -3 -6 -6z"/>
<path d="M1156 566 c5 -21 4 -27 -5 -22 -6 4 -11 2 -11 -3 0 -13 26 -15 34 -3
2 4 -2 18 -10 32 l-14 25 6 -29z"/>
<path d="M1035 569 c-4 -6 -4 -13 -1 -16 3 -4 6 -1 6 6 0 7 5 9 10 6 6 -3 10
-1 10 4 0 14 -17 14 -25 0z"/>
<path d="M1190 565 c0 -8 2 -15 4 -15 2 0 6 7 10 15 3 8 1 15 -4 15 -6 0 -10
-7 -10 -15z"/>
<path d="M1925 570 c-3 -5 -2 -10 4 -10 5 0 13 5 16 10 3 6 2 10 -4 10 -5 0
-13 -4 -16 -10z"/>
<path d="M590 544 c0 -8 5 -12 10 -9 6 3 10 10 10 16 0 5 -4 9 -10 9 -5 0 -10
-7 -10 -16z"/>
<path d="M697 548 c-2 -7 0 -22 5 -33 8 -18 8 -18 4 3 -2 12 0 22 5 22 5 0 9
5 9 10 0 14 -17 12 -23 -2z"/>
<path d="M2060 551 c0 -6 4 -13 10 -16 6 -3 7 1 4 9 -7 18 -14 21 -14 7z"/>
<path d="M736 534 c-4 -9 -4 -19 -1 -22 2 -3 7 3 11 12 4 9 4 19 1 22 -2 3 -7
-3 -11 -12z"/>
<path d="M1400 541 c0 -5 5 -13 10 -16 6 -3 10 -2 10 4 0 5 -4 13 -10 16 -5 3
-10 2 -10 -4z"/>
<path d="M1930 540 c0 -5 5 -10 11 -10 5 0 7 5 4 10 -3 6 -8 10 -11 10 -2 0
-4 -4 -4 -10z"/>
<path d="M1185 530 c-3 -5 -1 -10 4 -10 6 0 11 5 11 10 0 6 -2 10 -4 10 -3 0
-8 -4 -11 -10z"/>
<path d="M1718 533 c7 -3 16 -2 19 1 4 3 -2 6 -13 5 -11 0 -14 -3 -6 -6z"/>
<path d="M436 500 c-16 -17 -27 -32 -24 -35 6 -6 58 44 58 56 0 13 -2 12 -34
-21z"/>
<path d="M1061 508 c-1 -21 -37 -25 -44 -5 -2 6 -8 9 -12 4 -7 -6 21 -36 35
-37 16 0 31 20 27 36 -4 17 -5 17 -6 2z"/>
<path d="M1775 510 c-4 -6 3 -10 14 -10 25 0 27 6 6 13 -8 4 -17 2 -20 -3z"/>
<path d="M475 480 c-11 -17 -19 -37 -17 -45 2 -8 -2 -15 -9 -15 -8 0 -10 -12
-6 -37 3 -21 3 -32 0 -25 -7 18 -23 4 -23 -20 0 -13 5 -18 14 -15 9 4 17 -2
21 -14 11 -33 23 -21 21 20 -2 31 2 41 16 44 10 3 18 10 18 16 0 14 -17 14
-25 1 -7 -11 -25 -4 -25 10 0 5 9 11 19 15 16 5 19 14 18 50 -1 25 -2 45 -2
45 0 0 -9 -14 -20 -30z"/>
<path d="M592 490 c0 -14 2 -19 5 -12 2 6 2 18 0 25 -3 6 -5 1 -5 -13z"/>
<path d="M1536 495 c13 -35 5 -103 -26 -210 -6 -22 -16 -62 -21 -90 -13 -71
-27 -127 -34 -147 -11 -27 10 -21 25 7 7 14 22 25 32 25 10 0 18 7 18 15 0 8
-6 12 -14 9 -10 -4 -13 4 -11 33 1 21 3 41 4 45 2 12 25 5 38 -12 9 -12 9 -6
0 23 -7 21 -13 31 -15 23 -2 -9 -8 -16 -13 -16 -5 0 -3 17 5 38 8 20 19 63 26
95 6 31 16 57 21 57 6 0 7 9 4 21 -4 13 -2 25 5 29 8 5 7 12 -5 24 -15 15 -12
21 8 17 5 -1 6 3 2 9 -5 8 -11 8 -20 0 -10 -8 -16 -7 -25 7 -11 16 -11 16 -4
-2z"/>
<path d="M1155 490 c3 -5 8 -10 11 -10 2 0 4 5 4 10 0 6 -5 10 -11 10 -5 0 -7
-4 -4 -10z"/>
<path d="M691 464 c0 -11 3 -14 6 -6 3 7 2 16 -1 19 -3 4 -6 -2 -5 -13z"/>
<path d="M743 460 c5 -31 17 -36 17 -7 0 15 -4 27 -10 27 -5 0 -9 -9 -7 -20z"/>
<path d="M1176 465 c-3 -8 -1 -15 5 -15 12 0 9 -49 -4 -67 -7 -9 -4 -13 7 -13
15 0 18 11 18 70 0 33 -2 40 -11 40 -5 0 -11 -7 -15 -15z"/>
<path d="M1858 473 c7 -3 16 -2 19 1 4 3 -2 6 -13 5 -11 0 -14 -3 -6 -6z"/>
<path d="M1069 452 c7 -5 10 -15 7 -21 -4 -6 -2 -11 4 -11 17 0 8 33 -10 37
-12 4 -13 3 -1 -5z"/>
<path d="M1505 450 c-3 -5 -2 -10 4 -10 5 0 13 5 16 10 3 6 2 10 -4 10 -5 0
-13 -4 -16 -10z"/>
<path d="M1926 448 c-9 -5 -23 -23 -31 -41 -12 -24 -12 -28 -2 -14 16 20 67
23 67 5 0 -10 20 -12 75 -10 49 2 75 8 75 15 0 17 -38 39 -45 27 -9 -15 -72
-12 -78 4 -7 18 -40 26 -61 14z"/>
<path d="M2025 450 c-3 -5 1 -10 9 -10 9 0 16 5 16 10 0 6 -4 10 -9 10 -6 0
-13 -4 -16 -10z"/>
<path d="M331 434 c0 -11 3 -14 6 -6 3 7 2 16 -1 19 -3 4 -6 -2 -5 -13z"/>
<path d="M607 427 c3 -17 -1 -29 -17 -40 -12 -8 -17 -18 -11 -21 5 -4 13 -1
16 5 4 5 14 8 22 5 12 -5 13 0 8 27 -8 37 -25 60 -18 24z"/>
<path d="M134 420 c3 -14 6 -28 6 -32 0 -20 20 -5 20 15 0 18 2 19 11 7 9 -13
10 -13 6 0 -2 8 -10 14 -17 12 -7 -2 -17 3 -22 10 -7 9 -8 5 -4 -12z"/>
<path d="M1476 422 c-3 -5 1 -9 9 -9 8 0 12 4 9 9 -3 4 -7 8 -9 8 -2 0 -6 -4
-9 -8z"/>
<path d="M1580 420 c0 -5 5 -10 10 -10 6 0 10 5 10 10 0 6 -4 10 -10 10 -5 0
-10 -4 -10 -10z"/>
<path d="M300 416 c0 -3 4 -16 10 -30 6 -16 6 -27 -1 -31 -5 -4 -7 -11 -4 -16
4 -5 13 -2 22 7 12 11 13 18 4 27 -6 6 -11 19 -11 29 0 10 -4 18 -10 18 -5 0
-10 -2 -10 -4z"/>
<path d="M761 404 c0 -11 3 -14 6 -6 3 7 2 16 -1 19 -3 4 -6 -2 -5 -13z"/>
<path d="M1728 413 c7 -3 16 -2 19 1 4 3 -2 6 -13 5 -11 0 -14 -3 -6 -6z"/>
<path d="M710 405 c0 -5 5 -17 10 -25 5 -8 10 -10 10 -5 0 6 -5 17 -10 25 -5
8 -10 11 -10 5z"/>
<path d="M1360 401 c0 -6 4 -13 10 -16 6 -3 7 1 4 9 -7 18 -14 21 -14 7z"/>
<path d="M1605 400 c-3 -5 -1 -10 4 -10 6 0 11 5 11 10 0 6 -2 10 -4 10 -3 0
-8 -4 -11 -10z"/>
<path d="M416 385 c-3 -8 -1 -15 4 -15 6 0 10 7 10 15 0 8 -2 15 -4 15 -2 0
-6 -7 -10 -15z"/>
<path d="M746 376 c3 -18 0 -32 -8 -37 -7 -4 -10 -10 -8 -13 3 -2 12 1 21 8
15 10 15 15 3 41 l-14 30 6 -29z"/>
<path d="M1497 393 c-4 -3 -7 -11 -7 -17 0 -6 5 -5 12 2 6 6 9 14 7 17 -3 3
-9 2 -12 -2z"/>
<path d="M870 375 c0 -8 4 -15 9 -15 5 0 11 7 15 15 3 9 0 15 -9 15 -8 0 -15
-7 -15 -15z"/>
<path d="M1609 363 c-13 -16 -12 -17 4 -4 16 13 21 21 13 21 -2 0 -10 -8 -17
-17z"/>
<path d="M2096 368 c3 -5 10 -6 15 -3 13 9 11 12 -6 12 -8 0 -12 -4 -9 -9z"/>
<path d="M1211 353 c-1 -12 -5 -23 -10 -25 -13 -5 -24 -48 -12 -48 12 0 34 66
28 83 -3 6 -6 2 -6 -10z"/>
<path d="M1175 350 c3 -5 11 -10 16 -10 6 0 7 5 4 10 -3 6 -11 10 -16 10 -6 0
-7 -4 -4 -10z"/>
<path d="M1622 307 c-11 -29 -23 -79 -27 -112 -4 -33 -11 -74 -16 -91 -5 -17
-11 -48 -12 -68 -3 -30 0 -36 15 -36 11 0 17 4 13 9 -3 5 -1 12 5 16 6 4 8 10
5 15 -7 11 23 184 41 235 30 88 8 118 -24 32z"/>
<path d="M1485 339 c-4 -6 -5 -12 -2 -15 2 -3 7 2 10 11 7 17 1 20 -8 4z"/>
<path d="M0 316 c0 -17 14 -36 46 -63 25 -21 52 -50 60 -65 8 -15 34 -50 59
-78 25 -28 52 -64 60 -80 9 -18 23 -30 35 -30 18 0 19 3 8 20 -10 15 -10 22 0
32 10 10 14 10 21 0 7 -11 10 -10 14 3 4 9 3 13 -3 10 -6 -3 -10 -1 -10 6 0 7
-8 5 -20 -6 -23 -21 -32 -16 -32 20 0 14 -4 28 -9 31 -4 2 -6 12 -3 22 5 13 4
14 -4 4 -7 -10 -14 -3 -30 29 -15 29 -18 45 -11 50 8 5 8 9 -1 14 -14 9 -16 7
-24 -28 -4 -19 -3 -26 4 -22 5 3 10 -1 10 -9 0 -24 -15 -19 -28 9 -15 32 -15
45 -1 25 9 -12 10 -11 6 7 -3 13 -1 26 4 29 11 6 2 24 -12 24 -6 0 -7 -5 -4
-10 4 -6 1 -17 -5 -26 -11 -12 -14 -12 -26 3 -7 10 -13 23 -13 28 0 6 6 1 14
-9 15 -19 15 -19 15 3 0 18 -5 22 -24 19 -16 -2 -36 8 -60 30 -36 32 -36 32
-36 8z m220 -223 c0 -5 -9 6 -20 22 -11 17 -20 37 -20 45 0 8 9 -2 20 -23 11
-20 20 -40 20 -44z"/>
<path d="M1360 325 c0 -8 -4 -15 -10 -15 -5 0 -10 -4 -10 -9 0 -5 9 -7 20 -4
12 3 18 8 15 11 -2 3 0 11 6 19 9 10 8 13 -5 13 -9 0 -16 -7 -16 -15z"/>
<path d="M1572 315 c-7 -15 -8 -25 -2 -25 6 0 10 7 10 16 0 8 5 12 10 9 6 -3
10 -2 10 4 0 22 -18 19 -28 -4z"/>
<path d="M1754 308 c-4 -7 -7 -55 -5 -107 1 -53 2 -105 2 -116 1 -43 10 -85
19 -85 6 0 9 66 8 160 -1 149 -6 178 -24 148z"/>
<path d="M921 286 c-1 -16 -3 -17 -17 -5 -15 12 -16 11 -10 -9 5 -13 3 -22 -3
-22 -6 0 -11 -6 -11 -12 0 -7 12 -1 26 14 15 14 24 32 21 39 -4 9 -6 8 -6 -5z"/>
<path d="M1701 283 c0 -4 4 -17 9 -28 8 -19 9 -19 9 2 1 12 -3 25 -9 28 -5 3
-10 3 -9 -2z"/>
<path d="M1880 261 c0 -24 54 -41 133 -41 53 0 67 3 67 15 0 12 -15 15 -72 15
-44 0 -84 6 -100 14 -25 13 -28 13 -28 -3z"/>
<path d="M366 255 c4 -8 10 -12 15 -9 11 6 2 24 -11 24 -5 0 -7 -7 -4 -15z"/>
<path d="M1340 259 c0 -5 5 -7 10 -4 6 3 10 8 10 11 0 2 -4 4 -10 4 -5 0 -10
-5 -10 -11z"/>
<path d="M11 238 c11 -26 29 -29 29 -6 0 6 -3 8 -7 5 -3 -4 -12 1 -20 11 -12
15 -12 13 -2 -10z"/>
<path d="M1654 213 c4 -32 3 -43 -4 -33 -7 12 -9 10 -7 -7 1 -21 2 -21 19 -6
22 19 36 10 18 -12 -7 -8 -9 -15 -5 -15 8 0 44 42 45 51 0 4 -6 7 -12 6 -44
-1 -50 3 -43 33 5 20 3 30 -6 30 -8 0 -10 -13 -5 -47z"/>
<path d="M655 240 c-3 -5 -2 -10 4 -10 5 0 13 5 16 10 3 6 2 10 -4 10 -5 0
-13 -4 -16 -10z"/>
<path d="M710 242 c0 -5 7 -15 15 -22 8 -7 15 -8 15 -2 0 5 -7 15 -15 22 -8 7
-15 8 -15 2z"/>
<path d="M785 240 c-3 -5 -1 -10 4 -10 6 0 11 5 11 10 0 6 -2 10 -4 10 -3 0
-8 -4 -11 -10z"/>
<path d="M1677 233 c-4 -3 -7 -11 -7 -17 0 -6 5 -5 12 2 6 6 9 14 7 17 -3 3
-9 2 -12 -2z"/>
<path d="M686 221 c-6 -9 26 -142 45 -186 l9 -20 -3 20 c-1 12 3 19 12 17 9
-2 11 3 6 15 -4 10 -18 50 -32 88 -28 79 -29 80 -37 66z"/>
<path d="M53 205 c0 -8 4 -15 9 -15 4 0 8 4 8 9 0 6 -4 12 -8 15 -5 3 -9 -1
-9 -9z"/>
<path d="M754 209 c-3 -5 2 -6 10 -3 18 7 21 -7 5 -23 -8 -8 -8 -16 1 -30 11
-17 11 -17 6 1 -5 14 -2 17 12 14 12 -4 18 1 19 13 1 11 -4 19 -10 19 -8 0 -7
3 2 9 9 6 5 9 -13 9 -15 0 -29 -4 -32 -9z"/>
<path d="M890 216 c0 -2 7 -7 16 -10 8 -3 12 -2 9 4 -6 10 -25 14 -25 6z"/>
<path d="M821 194 c0 -11 3 -14 6 -6 3 7 2 16 -1 19 -3 4 -6 -2 -5 -13z"/>
<path d="M1930 202 c0 -11 13 -16 70 -27 32 -6 34 -6 19 9 -18 20 -89 34 -89
18z"/>
<path d="M630 175 c0 -14 2 -25 4 -25 2 0 6 11 8 25 3 14 1 25 -3 25 -5 0 -9
-11 -9 -25z"/>
<path d="M210 181 c0 -5 5 -13 10 -16 6 -3 10 -2 10 4 0 5 -4 13 -10 16 -5 3
-10 2 -10 -4z"/>
<path d="M427 175 c3 -8 9 -12 14 -9 12 7 11 11 -5 17 -10 4 -13 1 -9 -8z"/>
<path d="M495 180 c-3 -5 -1 -10 4 -10 6 0 11 5 11 10 0 6 -2 10 -4 10 -3 0
-8 -4 -11 -10z"/>
<path d="M1050 180 c0 -5 5 -10 10 -10 6 0 10 5 10 10 0 6 -4 10 -10 10 -5 0
-10 -4 -10 -10z"/>
<path d="M1428 183 c7 -3 16 -2 19 1 4 3 -2 6 -13 5 -11 0 -14 -3 -6 -6z"/>
<path d="M12 168 c3 -7 15 -15 27 -16 16 -3 22 1 19 10 -3 7 -15 15 -27 16
-16 3 -22 -1 -19 -10z"/>
<path d="M905 169 c-4 -6 -5 -12 -2 -15 2 -3 7 2 10 11 7 17 1 20 -8 4z"/>
<path d="M651 153 c-1 -25 14 -39 25 -22 4 7 3 9 -4 5 -6 -3 -12 3 -15 16 -4
23 -4 23 -6 1z"/>
<path d="M950 140 c0 -26 -3 -31 -10 -20 -8 12 -10 9 -10 -12 0 -14 -5 -28
-12 -30 -9 -3 -9 -6 0 -12 7 -4 12 -2 12 3 0 6 7 11 15 11 9 0 15 9 15 23 0
18 2 19 10 7 14 -22 12 -7 -5 31 l-14 34 -1 -35z"/>
<path d="M70 139 c0 -21 16 -34 24 -20 4 5 0 12 -6 14 -10 4 -10 6 0 6 17 1
15 18 -3 18 -8 0 -15 -8 -15 -18z"/>
<path d="M240 134 c0 -8 5 -12 10 -9 6 4 8 11 5 16 -9 14 -15 11 -15 -7z"/>
<path d="M747 138 c-4 -14 24 -77 35 -78 4 0 5 6 3 13 -3 6 5 17 17 22 21 10
35 45 17 45 -5 0 -9 -6 -9 -14 0 -17 -42 -29 -51 -14 -4 6 -5 17 -2 25 3 7 3
13 0 13 -3 0 -7 -6 -10 -12z"/>
<path d="M905 131 c-3 -5 -1 -12 5 -16 5 -3 10 1 10 9 0 18 -6 21 -15 7z"/>
<path d="M1060 130 c-9 -6 -10 -10 -3 -10 6 0 15 5 18 10 8 12 4 12 -15 0z"/>
<path d="M1093 125 c0 -7 6 -11 14 -8 7 3 13 6 13 8 0 2 -6 5 -13 8 -8 3 -14
-1 -14 -8z"/>
<path d="M36 103 c-6 -14 -5 -15 5 -6 7 7 10 15 7 18 -3 3 -9 -2 -12 -12z"/>
<path d="M0 99 c0 -6 12 -30 26 -55 18 -30 33 -44 47 -44 16 0 18 3 10 11 -6
6 -9 17 -7 24 3 8 -2 12 -13 12 -12 -2 -17 4 -15 17 2 10 -1 15 -7 12 -5 -4
-12 3 -16 14 -7 21 -25 28 -25 9z"/>
<path d="M1390 100 c0 -5 5 -10 11 -10 5 0 7 5 4 10 -3 6 -8 10 -11 10 -2 0
-4 -4 -4 -10z"/>
<path d="M1640 87 c-14 -24 -7 -33 10 -12 7 8 19 15 26 15 8 0 14 4 14 9 0 17
-37 8 -50 -12z"/>
<path d="M122 88 c-6 -7 -12 -20 -14 -28 -2 -8 -7 -18 -13 -22 -14 -10 -1 -20
18 -12 9 3 19 19 22 36 8 34 3 44 -13 26z"/>
<path d="M544 91 c4 -7 2 -19 -6 -28 -12 -15 -11 -15 10 -2 23 15 25 30 2 37
-8 3 -10 0 -6 -7z"/>
<path d="M1100 90 c0 -5 5 -10 11 -10 5 0 7 5 4 10 -3 6 -8 10 -11 10 -2 0 -4
-4 -4 -10z"/>
<path d="M1707 93 c-4 -3 -7 -11 -7 -17 0 -6 5 -5 12 2 6 6 9 14 7 17 -3 3 -9
2 -12 -2z"/>
<path d="M157 71 c-4 -17 -3 -21 5 -13 5 5 8 16 6 23 -3 8 -7 3 -11 -10z"/>
<path d="M825 80 c-3 -6 1 -7 9 -4 18 7 21 14 7 14 -6 0 -13 -4 -16 -10z"/>
<path d="M1400 48 c-20 -45 -10 -65 15 -32 14 18 21 74 10 74 -4 0 -15 -19
-25 -42z"/>
<path d="M570 60 c-9 -6 -10 -10 -3 -10 6 0 15 5 18 10 8 12 4 12 -15 0z"/>
<path d="M1515 60 c-4 -6 -11 -8 -16 -5 -5 4 -9 -1 -9 -10 0 -9 4 -14 9 -11 5
4 12 0 14 -6 3 -8 6 -6 6 5 1 10 6 15 11 12 6 -3 10 1 10 9 0 18 -16 21 -25 6z"/>
<path d="M596 52 c-3 -5 1 -9 9 -9 8 0 12 4 9 9 -3 4 -7 8 -9 8 -2 0 -6 -4 -9
-8z"/>
<path d="M1050 49 c0 -5 5 -7 10 -4 6 3 10 8 10 11 0 2 -4 4 -10 4 -5 0 -10
-5 -10 -11z"/>
<path d="M1190 35 c0 -20 4 -26 18 -23 9 2 17 12 17 23 0 11 -8 21 -17 23 -14
3 -18 -3 -18 -23z"/>
<path d="M176 37 c7 -19 -12 -24 -19 -4 -4 9 -8 8 -16 -3 -6 -8 -11 -19 -11
-25 0 -6 5 -3 10 5 9 13 11 13 20 0 9 -13 11 -13 20 0 9 13 11 13 20 0 5 -8
10 -10 10 -4 0 6 -9 19 -20 29 -18 17 -20 17 -14 2z"/>
<path d="M306 34 c-4 -9 -4 -19 -1 -22 2 -3 7 3 11 12 4 9 4 19 1 22 -2 3 -7
-3 -11 -12z"/>
<path d="M1247 43 c-3 -5 -1 -17 3 -28 7 -19 7 -19 18 1 11 21 7 34 -9 34 -4
0 -10 -3 -12 -7z"/>
<path d="M1614 25 c0 -23 18 -27 37 -8 8 8 7 13 -3 19 -24 15 -34 12 -34 -11z
m26 -1 c0 -8 -5 -12 -10 -9 -6 4 -8 11 -5 16 9 14 15 11 15 -7z"/>
<path d="M1686 26 c-6 -22 4 -38 11 -18 3 7 11 19 19 27 12 12 12 14 -5 12
-11 -1 -22 -10 -25 -21z"/>
<path d="M790 30 c0 -5 5 -10 10 -10 6 0 10 5 10 10 0 6 -4 10 -10 10 -5 0
-10 -4 -10 -10z"/>
<path d="M340 21 c0 -6 4 -13 10 -16 6 -3 7 1 4 9 -7 18 -14 21 -14 7z"/>
<path d="M615 19 c-11 -16 -1 -19 13 -3 7 8 8 14 3 14 -5 0 -13 -5 -16 -11z"/>
<path d="M951 14 c0 -11 3 -14 6 -6 3 7 2 16 -1 19 -3 4 -6 -2 -5 -13z"/>
<path d="M971 14 c0 -11 3 -14 6 -6 3 7 2 16 -1 19 -3 4 -6 -2 -5 -13z"/>
<path d="M1717 23 c-10 -9 -9 -23 1 -23 5 0 9 7 9 15 0 17 -1 18 -10 8z"/>
<path d="M1425 10 c3 -5 8 -10 11 -10 2 0 4 5 4 10 0 6 -5 10 -11 10 -5 0 -7
-4 -4 -10z"/>
<path d="M1465 10 c-3 -5 -2 -10 4 -10 5 0 13 5 16 10 3 6 2 10 -4 10 -5 0
-13 -4 -16 -10z"/>
</g>
</svg>
